# xmcd
#
# Track frame offsets: 
#        150
#        17765
#        39183
#        55813
#        75699
#        95672
#        116422
#        134095
#        154754
#        174157
#        193909
#        216471
#        235245
#        257409
#        279604
#
# Disc length: 4015 seconds
#
# Revision: 1
# Processed by: cddbd v1.5.2PL0 Copyright (c) Steve Scherf et al.
# Submitted via: ExactAudioCopy v1.0b3
#
DISCID=cf0fad0f
DTITLE=Various Artist - Envidia Salsa Hits Vol.2
DYEAR=2005
DGENRE=Salsa
TTITLE0=Willie Sotelo and la Mundial - El Divorcio
TTITLE1=Pedru Brull and Titi Nueves - Así Gordito me Quieren
TTITLE2=Orquesta la Solución - Nacarile de Oriente
TTITLE3=Juicy and Eric - Llegaste Tú
TTITLE4=Miles Peña - Color de Rosa
TTITLE5=Víctor Manuelle and La Puertorriqueña - Borracho de Amor
TTITLE6=Bobby Pérez and Tres con Kaché - Hoy hace un Año
TTITLE7=José Alberto "El Canario" - Mueve tu Cintura
TTITLE8=Roberto Delgado and Orquesta - Ciclo
TTITLE9=Doel - Rompe la Rutina
TTITLE10=Tito Rojas - Llegó
TTITLE11=Don Perignon and La Puertorriqueña - La Fuga
TTITLE12=Miami's Band - Suavito
TTITLE13=La Cosmopolita - Mía
TTITLE14=Manolé - Vuela Alto
EXTD=YEAR: 2005
EXTT0=
EXTT1=
EXTT2=
EXTT3=
EXTT4=
EXTT5=
EXTT6=
EXTT7=
EXTT8=
EXTT9=
EXTT10=
EXTT11=
EXTT12=
EXTT13=
EXTT14=
PLAYORDER=
